<svg xmlns="http://www.w3.org/2000/svg" viewBox="0 0 800 600" width="800" height="600" role="img">
  <defs>
    <linearGradient id="bg" x1="0" y1="0" x2="1" y2="1">
      <stop offset="0" stop-color="#FFD9A0"/><stop offset="1" stop-color="#E4632F"/>
    </linearGradient>
  </defs>
  <rect width="800" height="600" fill="url(#bg)"/>
  <circle cx="120" cy="90" r="150" fill="#fff" opacity=".10"/>
  <circle cx="700" cy="530" r="180" fill="#000" opacity=".06"/>
  
  <ellipse cx="400" cy="335" rx="215" ry="55" fill="#000" opacity=".07"/>
  <circle cx="400" cy="300" r="185" fill="#fff" opacity=".92"/>
  <circle cx="400" cy="300" r="185" fill="none" stroke="#9C3A15" stroke-opacity=".18" stroke-width="3"/>
  <circle cx="400" cy="300" r="150" fill="none" stroke="#9C3A15" stroke-opacity=".12" stroke-width="2"/>
  
    <path d="M400 168 543 402a166 166 0 0 1-286 0z" fill="#F0B457"/>
    <path d="M400 206 512 390a140 140 0 0 1-224 0z" fill="#E4632F" opacity=".55"/>
    <circle cx="372" cy="330" r="17" fill="#B62A22"/><circle cx="436" cy="316" r="15" fill="#B62A22"/>
    <circle cx="404" cy="372" r="13" fill="#B62A22"/><circle cx="350" cy="372" r="10" fill="#7FAE5A"/>
    <circle cx="452" cy="366" r="10" fill="#7FAE5A"/>
</svg>